<?xml version="1.0" encoding="UTF-8"?>
<svg id="Layer_1" xmlns="http://www.w3.org/2000/svg" version="1.1" viewBox="0 0 589.51221 168.03906">
  <!-- Generator: Adobe Illustrator 29.2.1, SVG Export Plug-In . SVG Version: 2.1.0 Build 116)  -->
  <path d="M0,0h124.34863v55.55176h-2.1748c-.39502-13.24512-3.95361-23.12988-12.84961-35.58398-6.52393-8.30371-19.17627-17.19922-24.11865-16.80469h-3.16309l.19775,116.0459c-.19775,5.93066,3.95361,9.09375,11.86133,9.48926h6.32617v3.16309H21.54834v-3.16309h6.72168c8.50049-.39551,13.24512-4.34863,13.04736-11.46582V3.16309h-2.76758c-7.51221,0-20.95508,11.07129-28.27002,23.52539-6.12842,10.08301-7.90771,16.21094-7.90771,26.49121v2.37207H0V0Z"/>
  <path d="M165.8623,94.2998c0,18.58301.59326,22.53711,4.54688,30.64258,2.37256,4.74414,6.12891,6.72168,12.65234,6.72168,9.09424,0,17.19971-3.9541,23.13037-11.66406,4.74463-5.93066,6.32617-10.67578,7.31445-20.56055h2.57031c-1.58154,11.4668-3.36084,16.40918-7.71045,22.53711-6.32617,8.69922-17.00146,13.44336-30.64209,13.44336-14.43164,0-28.27002-5.53516-36.771-14.62891-6.91895-7.70996-10.67529-18.18848-10.67529-30.24707,0-28.46777,19.9668-50.21387,45.86475-50.21387,14.23389,0,25.89746,6.32617,33.60791,17.98926,5.53516,8.50098,7.31445,15.4209,7.51221,28.46777h-51.59766l.19727,7.5127ZM184.4458,84.01953v-15.81543c0-17.79199-2.37256-24.11816-9.09424-24.11816-7.1167,0-9.68652,6.32617-9.48926,23.9209v16.0127h18.5835Z"/>
  <path d="M287.8374,102.99805c0,21.74609-8.896,32.42188-27.08398,32.42188-7.70996,0-14.62939-2.37207-18.1875-6.12793-3.16309-3.55859-4.74463-9.6875-4.74463-18.58398V46.26074h-9.48926v-2.57031c1.38379.19824,2.37207.19824,2.76758.19824,11.86133,0,24.51367-5.93164,32.61914-15.4209,4.15186-4.94238,5.7334-9.09375,6.12842-17.19922h1.97705v32.42188h14.82715v2.57031h-14.82715v70.18066c0,7.11719,1.38379,10.67578,4.34912,10.67578,1.38428,0,4.34961-2.37305,5.7334-4.74512,2.96533-5.13965,3.75586-9.48926,3.75586-23.32715h2.1748v3.95312Z"/>
  <path d="M293.96533,129.29199h3.36084c6.12842-.19824,8.896-2.1748,8.896-6.52441l.19775-111.10352c-.19775-6.72168-1.58154-8.89551-5.7334-9.09375h-5.13965V0h43.4917v51.7959c6.52441-9.88477,12.65234-13.24512,23.52539-13.24512,8.50098,0,17.19922,3.16309,23.13086,8.50098,3.55762,2.96484,4.94238,7.90723,4.94238,16.80371v58.91211c0,3.75586,1.97656,6.32617,5.13965,6.52441h5.7334v2.56934h-51.7959v-2.56934h3.55859c2.76758-.19824,4.15137-2.37305,4.15137-6.52441v-60.88965c0-13.44238-.98828-16.0127-6.12891-16.0127-6.7207,0-12.25684,8.10547-12.25684,17.99023v58.91211c0,5.7334.39551,6.32617,5.93066,6.52441v2.56934h-51.00391v-2.56934Z"/>
  <path d="M460.22314,43.69043v2.57031h-3.75684c-2.76758,0-5.13965,1.58105-5.13965,3.36035,0,.79102.59277,2.96582,1.58105,5.53516l19.17676,47.8418,8.89648-27.47852c1.77832-5.53613,2.76758-11.4668,2.76758-17.00195,0-8.30273-2.96582-11.86133-10.28027-12.25684v-2.57031h35.18945v2.57031h-.98828c-5.14062,0-7.9082,1.38379-11.26855,5.53516-4.94238,6.12891-10.47754,16.4082-12.85059,24.11816l-17.79199,54.76172c-4.94238,15.02441-8.50098,23.12988-12.85059,28.4668-4.54688,5.53613-12.25684,8.89648-19.9668,8.89648-12.25684,0-21.15332-8.69824-21.15332-20.3623,0-9.88477,7.5127-17.59473,17.00195-17.59473,9.88477,0,17.59473,7.70996,17.59473,17.79199,0,8.69922-4.34961,13.24609-16.0127,16.40918,2.17383.39551,3.16309.59277,4.54688.59277,5.33691,0,11.86133-3.16309,15.61719-7.5127,4.34961-4.74414,6.72168-10.08203,11.4668-24.11816h-13.44336l-36.57324-79.86719c-2.1748-4.54785-5.14062-6.91992-8.89648-7.11719h-3.55762v-2.57031h60.69141Z"/>
  <path d="M511.02783,89.9502h1.7793c8.10547,24.91016,23.9209,41.31836,39.73633,41.31836,7.11719,0,11.66406-4.34961,11.66406-10.87305,0-6.72168-4.34863-11.07129-14.03613-14.43164-19.17578-6.32617-28.66504-11.66406-32.81738-18.38574-3.16309-5.33789-4.74414-10.28027-4.74414-15.22168,0-9.6875,6.12793-20.75781,14.03613-25.7002,5.13965-3.16309,15.02441-5.7334,22.1416-5.7334,4.74512,0,10.28027.98828,16.4082,3.16309,3.16309,1.18652,6.12891,1.7793,8.10547,1.7793,1.97754,0,3.36133-.98828,5.33789-3.75586h1.38379l.39551,31.23535h-1.7793c-5.7334-12.05957-7.70996-15.22266-11.86133-19.76953-5.7334-6.52344-11.4668-9.88477-16.80371-9.88477-6.32617,0-11.26855,5.13965-11.26855,11.86133,0,6.91992,5.73242,10.87305,22.1416,15.61816,13.04785,3.55859,22.33887,9.88477,25.50195,16.60645,1.97656,4.15137,3.16309,10.2793,3.16309,15.81543,0,10.47754-5.33789,19.76855-14.2334,25.10645-5.93164,3.55859-15.02539,6.32617-20.56055,6.32617s-12.4541-1.58105-20.75781-4.74414c-4.74414-1.7793-9.48926-2.76758-12.4541-2.76758-2.57031,0-4.54688,1.18555-8.89648,4.94238h-1.58203v-42.50488Z"/>
</svg>