<?xml version="1.0" encoding="UTF-8"?>
<svg id="Layer_1" xmlns="http://www.w3.org/2000/svg" version="1.1" viewBox="0 0 827.36712 806">
  <!-- Generator: Adobe Illustrator 29.2.1, SVG Export Plug-In . SVG Version: 2.1.0 Build 116)  -->
  <defs>
    <style>
      .st0 {
        fill: #141414;
      }

      .st1 {
        fill: #d83232;
      }
    </style>
  </defs>
  <path class="st0" d="M0,0v806h668V0H0ZM583.72571,140.10638H169.1076v518.82397L487.72571,192.25647h17.3819v-.09454h78.6181v550.50946h-78.6181v-435.26447l-297.17358,435.26447h-123.65973V69.32861h499.45142v70.77777Z"/>
  <g>
    <path class="st1" d="M765.64071,21.65862h-29.23899l4.17729-21.65862h85.08605l-4.17626,21.65862h-29.23899l-16.70814,86.63347h-26.60911l16.70814-86.63347Z"/>
    <path class="st1" d="M748.62329,139.2321h69.92533l-3.86699,19.80194h-43.31725l-4.48554,22.58697h39.75851l-3.86802,19.80194h-39.75851l-5.10512,26.29932h43.31622l-3.71235,19.80194h-69.92533l21.03904-108.29209Z"/>
    <path class="st1" d="M765.64071,300.12282h-29.23899l4.17729-21.65862h85.08605l-4.17626,21.65862h-29.23899l-16.70814,86.63347h-26.60911l16.70814-86.63347Z"/>
    <path class="st1" d="M745.22022,417.6963h26.60911l-8.19995,41.46056h22.58645l8.19995-41.46056h26.60808l-21.03904,108.29209h-26.60911l8.66386-45.17291h-22.58748l-8.66283,45.17291h-26.60911l21.04007-108.29209Z"/>
    <path class="st1" d="M757.28715,621.43932l-19.6473-58.32231,1.23711-6.18862h25.37097l8.50922,30.63176c.77319,2.62988,1.23711,5.4144,1.85669,8.35355h1.54638l5.25976-8.35355,19.80194-30.63176h26.14519l-1.23814,6.18862-42.23375,58.16767-8.50819,43.9358h-26.60911l8.50922-43.78116Z"/>
    <path class="st1" d="M730.67804,781.86613h7.58036c4.02265,2.3206,11.44838,4.17729,18.71947,4.17729,13.61332,0,21.50296-4.95048,21.50296-13.45971,0-4.95048-2.47524-7.735-10.36488-10.98343l-9.90097-4.02265c-12.53085-5.10512-19.02874-13.45868-19.02874-24.90706,0-22.74109,19.80194-38.05646,49.3502-38.05646,9.28241,0,18.25555,1.70102,25.37097,4.64121l-3.71235,19.18235h-7.42573c-4.33193-2.47524-10.21024-3.86699-16.24423-3.86699-12.0659,0-19.80194,5.10512-19.80194,12.99476,0,4.48657,2.62988,7.735,9.28241,10.36488l9.74633,3.86802c13.92362,5.56904,20.42049,13.61332,20.42049,25.52561,0,23.66995-18.87308,38.67604-49.50484,38.67604-11.44735,0-20.57513-1.85669-29.7029-4.95048l3.71338-19.18338Z"/>
  </g>
</svg>