<?xml version="1.0" encoding="UTF-8"?>
<svg id="Layer_1" xmlns="http://www.w3.org/2000/svg" version="1.1" xmlns:xlink="http://www.w3.org/1999/xlink" viewBox="0 0 792.62292 421.31146">
  <!-- Generator: Adobe Illustrator 29.2.1, SVG Export Plug-In . SVG Version: 2.1.0 Build 116)  -->
  <defs>
    <style>
      .st0 {
        fill: #ffe7d4;
      }

      .st1 {
        fill: #fff;
      }

      .st2 {
        fill: #d7f4ff;
      }

      .st3 {
        fill: #fffaee;
      }

      .st4 {
        fill: none;
        stroke: #231f20;
        stroke-miterlimit: 10;
        stroke-width: .5px;
      }

      .st5 {
        fill: #232323;
      }

      .st6 {
        clip-path: url(#clippath);
      }

      .st7 {
        fill: #ffd399;
      }

      .st8 {
        fill: #ffba7b;
      }
    </style>
    <clipPath id="clippath">
      <path class="st3" d="M464.27264,261.55396c-20.06577,11.20599-43.17682,17.61222-67.78503,17.64265-76.48244.09458-139.2705-62.18221-139.77148-138.66307C256.20831,63.00633,318.90196,0,396.31146,0h-.0004C177.43451,0,0,177.43451,0,396.31107v.00042c0,13.8071,11.19287,24.99998,24.99998,24.99998h326.46401c16.51453-66.31482,57.49426-122.94476,112.80865-159.75751Z"/>
    </clipPath>
  </defs>
  <g>
    <path class="st7" d="M535.90985,139.59839c0,47.29395-23.52301,89.08868-59.5025,114.33942,40.29932-23.84338,87.30963-37.54437,137.52704-37.54437,58.52002,0,112.69653,18.58771,156.95618,50.17548C717.15698,111.41199,569.74817,0,396.31183,0h-.00037c77.09802,0,139.59839,62.50031,139.59839,139.59839Z"/>
    <path class="st1" d="M464.27264,261.55396c-20.06577,11.20599-43.17682,17.61222-67.78503,17.64265-76.48244.09458-139.2705-62.18221-139.77148-138.66307C256.20831,63.00633,318.90196,0,396.31146,0h-.0004C177.43451,0,0,177.43451,0,396.31107v25.0004h351.46399c16.51453-66.31482,57.49426-122.94476,112.80865-159.75751Z"/>
    <path class="st2" d="M792.62292,396.3111c0-45.44025-7.65417-89.09119-21.73236-129.74219-44.25964-31.58777-98.43616-50.17548-156.95618-50.17548-50.21741,0-97.22772,13.70099-137.52704,37.54437-3.90271,2.73895-7.95288,5.28076-12.1347,7.61615-55.31439,36.81274-96.29413,93.44269-112.80865,159.75751h416.15859c13.80731,0,25.00034-11.19303,25.00034-25.00034v-.00003Z"/>
    <path class="st8" d="M256.71308,139.62211c.01278,76.84099,62.96773,139.68787,139.80864,139.57445,24.59546-.0363,47.69442-6.44179,67.75093-17.64261,3.9718-2.64331,8.01892-5.18103,12.1347-7.61615,44.91033-31.51847,70.41279-88.81339,54.98527-150.4049-12.36674-49.37192-51.57923-87.84887-101.11843-99.52751-91.83736-21.65023-173.57578,47.43995-173.56111,135.61671Z"/>
    <path class="st1" d="M476.40735,253.93781c-4.11578,2.43512-8.1629,4.97284-12.1347,7.61615,4.18182-2.33539,8.23199-4.8772,12.1347-7.61615Z"/>
    <path class="st5" d="M322.29521,140.96248c.70891,39.39156,32.69439,71.63263,72.07945,72.63961,13.80833.35305,26.78545-3.08139,37.97638-9.33111,2.10623-1.40174,4.25241-2.74748,6.43499-4.03882,19.05318-13.37169,31.51915-35.49216,31.55389-60.52885.05573-40.16166-32.45642-73.36942-72.6111-74.12022-41.98912-.7851-76.18915,33.39682-75.43361,75.37938Z"/>
    <path class="st0" d="M403.23385,118.90255c.92377,7.36351,7.03244,13.20571,14.42631,13.84235,3.34999.28845,6.5069-.4598,9.18842-1.95733.45437-.30239.91736-.59271,1.3882-.87128,4.47918-3.14353,7.2708-8.52839,6.74332-14.52624-.64875-7.37673-6.48096-13.46576-13.82793-14.39265-10.44419-1.31763-19.22842,7.46219-17.91832,17.90515Z"/>
  </g>
  <g>
    <path class="st3" d="M464.27264,261.55396c-20.06577,11.20599-43.17682,17.61222-67.78503,17.64265-76.48244.09458-139.2705-62.18221-139.77148-138.66307C256.20831,63.00633,318.90196,0,396.31146,0h-.0004C177.43451,0,0,177.43451,0,396.31107v.00042c0,13.8071,11.19287,24.99998,24.99998,24.99998h326.46401c16.51453-66.31482,57.49426-122.94476,112.80865-159.75751Z"/>
    <g class="st6">
      <g>
        <path class="st4" d="M-330.41093,347.53183c-48.54976-199.9938,14.38524-405.21834,174.43375-506.57932C3.42462-260.51667,259.93994-258.12225,583.61554-45.37643"/>
        <path class="st4" d="M-307.11789,367.52475c-49.51628-196.62549,12.39885-399.64301,171.61048-499.91873C23.05748-232.77792,278.91885-230.42014,602.35968-18.79327"/>
        <path class="st4" d="M-284.2607,386.94534C-334.72519,193.62497-273.81152-7.24881-115.41848-106.50261,42.32785-205.86462,297.55356-203.60667,620.77789,6.83798"/>
        <path class="st4" d="M-261.84247,405.81143c-51.39473-190.07855,8.53535-388.87189,166.12775-487.16705C61.23096-179.75902,315.83893-177.66429,638.86481,31.53482"/>
        <path class="st4" d="M-239.86607,424.1412c-52.30751-186.90015,6.65648-383.67642,163.46574-481.07642,156.16248-97.50816,410.17035-95.64006,733.01514,112.25018"/>
        <path class="st4" d="M-218.33437,441.95261c-53.20323-183.78528,4.81172-378.60794,160.85488-475.17615,155.39645-96.67639,408.82101-95.09839,731.50188,111.41946"/>
        <path class="st4" d="M-197.25016,459.26376c-54.08237-180.73395,3.00018-373.66666,158.29385-469.46661C115.69063-106.11111,368.54871-104.88663,691.08209,100.19534"/>
        <path class="st4" d="M-176.61615,476.09268c-54.94527-177.74622,1.22102-368.85242,155.78136-463.94788,153.91365-95.20361,406.2213-94.39633,728.62355,109.18613"/>
        <path class="st4" d="M-156.43493,492.45724c-55.79247-174.82196-.5267-364.16553,153.31604-458.61993C150.07715-60.7254,401.85022-60.39905,724.1369,141.62018"/>
        <path class="st4" d="M-136.70903,508.37595c-56.62438-171.96167-2.24385-359.6062,150.89664-453.48352C166.6813-39.09308,417.93506-39.3114,740.12164,161.08081"/>
        <path class="st4" d="M-117.44091,523.86679c-57.44144-169.16516-3.93126-355.17459,148.52178-448.5386C182.88718-18.14401,433.63629-18.97092,755.73761,179.7305"/>
        <path class="st4" d="M-98.63297,538.94772c-58.24408-166.43262-5.58981-350.87079,146.19022-443.7854C198.69052,2.13953,448.94971.64026,770.98004,197.58688"/>
        <path class="st4" d="M-80.2875,553.63699c-59.0327-163.76416-7.22039-346.69495,143.9006-439.22406C214.08737,21.77557,463.87042,19.53986,785.84381,214.66782"/>
        <path class="st4" d="M-62.40671,567.95285c-59.80781-161.15955-8.82393-342.64734,141.65158-434.8551C229.0737,40.78171,478.3941,37.74564,800.32422,230.99081"/>
        <path class="st4" d="M-44.99273,581.91318c-60.56979-158.61908-10.40123-338.72772,139.44184-430.67831C243.64554,59.17612,492.51654,55.27536,814.4165,246.57364"/>
        <path class="st4" d="M-28.04768,595.53653c-61.31909-156.14294-11.95314-334.93665,137.27032-426.69424,148.57674-91.86575,397.01106-96.69522,718.8932,92.59195"/>
        <path class="st4" d="M-11.57345,608.84073c-62.0562-153.73096-13.48068-331.27417,135.13532-422.90302,147.96916-91.73694,395.9789-97.55963,717.85573,89.65228"/>
        <path class="st4" d="M4.42801,621.84415c-62.78148-151.38348-14.98456-327.74042,133.03574-419.30469,147.3735-91.67252,394.97046-98.55252,716.85376,86.51953"/>
        <path class="st4" d="M19.9549,634.56503C-43.54053,485.46481,3.48917,310.22971,150.92519,218.66534c146.78926-91.67255,393.98485-99.67438,715.88579,83.19357"/>
        <path class="st4" d="M35.00552,647.02158C-29.19294,500.14005,17.08041,325.96219,163.94296,234.33334c146.21579-91.737,393.0209-100.92511,714.95065,79.67426"/>
        <path class="st4" d="M49.57809,659.23203C-15.31288,514.50467,30.21461,341.31961,176.51419,249.56168c145.65289-91.86609,392.07797-102.30518,714.04697,75.96094"/>
        <path class="st4" d="M63.67117,671.21457C-1.90229,528.57651,42.88937,356.31979,188.63614,264.36813c145.09998-92.05988,391.15512-103.81439,713.17337,72.05389"/>
        <path class="st4" d="M77.28319,682.98764c-66.24635-140.61322-22.18085-312.00665,123.02263-404.21667,144.55682-92.3183,390.25168-105.45306,712.32864,67.95276"/>
        <path class="st4" d="M90.41273,694.56937c-66.91006-138.65326-23.56161-309.24811,121.10783-401.78125,144.02271-92.64142,389.36621-107.22125,711.51135,63.65723"/>
        <path class="st4" d="M103.05849,705.97818c-67.56511-136.75824-24.92491-306.61932,119.2191-399.54047,143.49741-93.02948,388.4986-109.11926,710.7204,59.16699"/>
        <path class="st4" d="M115.21918,717.23233c-68.21176-134.92792-26.27164-304.1203,117.35532-397.49463,142.98019-93.48254,387.64731-111.147,709.95425,54.48218"/>
        <path class="st4" d="M126.89363,728.35001c-68.85062-133.16284-27.60263-301.75122,115.51503-395.64362,142.47098-94.00049,386.8118-113.3049,709.21164,49.60217"/>
        <path class="st4" d="M138.0808,739.3497c-69.48209-131.46277-28.9189-299.51245,113.69701-393.98792,141.96921-94.5835,385.99106-115.59277,708.49118,44.52704"/>
        <path class="st4" d="M148.7796,750.24985c-70.10657-129.82788-30.22112-297.40405,111.89996-392.52771,141.4743-95.23181,385.18445-118.01111,707.79156,39.25629"/>
        <path class="st4" d="M158.98904,761.06857c-70.72444-128.25812-31.51024-295.42584,110.12253-391.26312,140.98602-95.94525,384.39069-120.55988,707.11188,33.78998"/>
        <path class="st4" d="M168.70837,771.82431c-71.33626-126.75378-32.78725-293.57849,108.3634-390.19427,140.50378-96.72406,383.60913-123.23932,706.45013,28.1275"/>
        <path class="st4" d="M177.93677,782.53561c-71.9424-125.31464-34.05284-291.86176,106.62122-389.32184,140.02728-97.56818,382.83905-126.04938,705.8056,22.26935"/>
        <path class="st4" d="M186.67355,793.22079c-72.54337-123.94104-35.30801-290.27576,104.89474-388.64557,139.55603-98.47772,382.07935-128.9903,705.17676,16.21454"/>
        <path class="st4" d="M194.91806,803.89816c-73.13945-122.63293-36.55356-288.82117,103.18268-388.16571,139.08951-99.45288,381.32913-132.0625,704.56216,9.9632"/>
        <path class="st4" d="M202.6698,814.5864c-73.73122-121.39062-37.79041-287.49744,101.48364-387.88293,138.62732-100.49359,380.58777-135.26569,703.96075,3.51514"/>
        <path class="st4" d="M209.92838,825.3038c-74.31912-120.21387-39.01956-286.3053,99.79617-387.79712,138.16907-101.59998,379.85425-138.60022,703.37097-3.12994"/>
      </g>
    </g>
  </g>
</svg>